<svg width="341" height="133" viewBox="0 0 341 133" fill="none" xmlns="http://www.w3.org/2000/svg">
<path d="M0.5 62L0.5 1.25L36.875 1.25L36.875 62H23.675L23.675 10.85H13.7L13.7 62H0.5ZM63.3102 62.9C58.7602 62.9 55.1602 62.1 52.5102 60.5C49.8602 58.9 47.9602 56.6 46.8102 53.6C45.6602 50.6 45.0852 47.025 45.0852 42.875V20.3C45.0852 16.1 45.6602 12.525 46.8102 9.575C47.9602 6.625 49.8602 4.375 52.5102 2.825C55.1602 1.225 58.7602 0.424997 63.3102 0.424997C67.9102 0.424997 71.5352 1.225 74.1852 2.825C76.8852 4.375 78.8102 6.625 79.9602 9.575C81.1102 12.525 81.6852 16.1 81.6852 20.3L81.6852 42.875C81.6852 47.025 81.1102 50.6 79.9602 53.6C78.8102 56.6 76.8852 58.9 74.1852 60.5C71.5352 62.1 67.9102 62.9 63.3102 62.9ZM63.3102 53.375C64.7102 53.375 65.7352 53.025 66.3852 52.325C67.0352 51.625 67.4602 50.725 67.6602 49.625C67.8602 48.525 67.9602 47.4 67.9602 46.25L67.9602 17C67.9602 15.8 67.8602 14.675 67.6602 13.625C67.4602 12.525 67.0352 11.625 66.3852 10.925C65.7352 10.225 64.7102 9.875 63.3102 9.875C62.0102 9.875 61.0352 10.225 60.3852 10.925C59.7352 11.625 59.3102 12.525 59.1102 13.625C58.9102 14.675 58.8102 15.8 58.8102 17V46.25C58.8102 47.4 58.8852 48.525 59.0352 49.625C59.2352 50.725 59.6352 51.625 60.2352 52.325C60.8852 53.025 61.9102 53.375 63.3102 53.375ZM107.255 62.9C102.655 62.9 99.0055 62.075 96.3055 60.425C93.6555 58.725 91.7805 56.375 90.6805 53.375C89.5805 50.325 89.0305 46.75 89.0305 42.65L89.0305 20.75C89.0305 16.55 89.5805 12.95 90.6805 9.95C91.7805 6.9 93.6555 4.55 96.3055 2.9C99.0055 1.25 102.655 0.424997 107.255 0.424997C111.755 0.424997 115.255 1.175 117.755 2.675C120.305 4.125 122.105 6.175 123.155 8.825C124.205 11.475 124.73 14.525 124.73 17.975V23.225L111.605 23.225V17.15C111.605 15.95 111.53 14.8 111.38 13.7C111.28 12.6 110.93 11.7 110.33 11C109.73 10.25 108.705 9.875 107.255 9.875C105.855 9.875 104.805 10.25 104.105 11C103.455 11.75 103.03 12.7 102.83 13.85C102.68 14.95 102.605 16.125 102.605 17.375L102.605 45.95C102.605 47.3 102.705 48.55 102.905 49.7C103.155 50.8 103.605 51.7 104.255 52.4C104.955 53.05 105.955 53.375 107.255 53.375C108.655 53.375 109.655 53.025 110.255 52.325C110.855 51.575 111.23 50.625 111.38 49.475C111.53 48.325 111.605 47.15 111.605 45.95V39.575H124.73V44.825C124.73 48.275 124.205 51.375 123.155 54.125C122.155 56.825 120.38 58.975 117.83 60.575C115.33 62.125 111.805 62.9 107.255 62.9ZM131.891 62L132.941 1.25L147.341 1.25L154.016 36.575L161.216 1.25L175.091 1.25L176.141 62H166.616L165.491 21.575L158.441 62H149.966L142.466 21.275L141.566 62H131.891ZM202.324 62.9C197.774 62.9 194.174 62.1 191.524 60.5C188.874 58.9 186.974 56.6 185.824 53.6C184.674 50.6 184.099 47.025 184.099 42.875V20.3C184.099 16.1 184.674 12.525 185.824 9.575C186.974 6.625 188.874 4.375 191.524 2.825C194.174 1.225 197.774 0.424997 202.324 0.424997C206.924 0.424997 210.549 1.225 213.199 2.825C215.899 4.375 217.824 6.625 218.974 9.575C220.124 12.525 220.699 16.1 220.699 20.3V42.875C220.699 47.025 220.124 50.6 218.974 53.6C217.824 56.6 215.899 58.9 213.199 60.5C210.549 62.1 206.924 62.9 202.324 62.9ZM202.324 53.375C203.724 53.375 204.749 53.025 205.399 52.325C206.049 51.625 206.474 50.725 206.674 49.625C206.874 48.525 206.974 47.4 206.974 46.25V17C206.974 15.8 206.874 14.675 206.674 13.625C206.474 12.525 206.049 11.625 205.399 10.925C204.749 10.225 203.724 9.875 202.324 9.875C201.024 9.875 200.049 10.225 199.399 10.925C198.749 11.625 198.324 12.525 198.124 13.625C197.924 14.675 197.824 15.8 197.824 17V46.25C197.824 47.4 197.899 48.525 198.049 49.625C198.249 50.725 198.649 51.625 199.249 52.325C199.899 53.025 200.924 53.375 202.324 53.375ZM234.344 62V11.225L225.194 11.225V1.25L256.919 1.25V11.225L247.844 11.225V62H234.344ZM262.268 62V1.25L282.668 1.25C286.318 1.25 289.318 1.95 291.668 3.35C294.018 4.7 295.768 6.7 296.918 9.35C298.068 11.95 298.643 15.125 298.643 18.875C298.643 23.575 297.868 27.175 296.318 29.675C294.768 32.125 292.668 33.825 290.018 34.775C287.368 35.725 284.393 36.2 281.093 36.2H275.693V62H262.268ZM275.693 26.825H280.193C281.843 26.825 283.093 26.525 283.943 25.925C284.793 25.325 285.343 24.425 285.593 23.225C285.893 22.025 286.043 20.5 286.043 18.65C286.043 17.1 285.918 15.75 285.668 14.6C285.468 13.4 284.943 12.45 284.093 11.75C283.243 11.05 281.918 10.7 280.118 10.7H275.693V26.825ZM305.339 62V1.25L315.914 1.25V36.05L331.439 1.25L340.139 1.25V62H329.339V26.6L313.514 62H305.339ZM0.5 132L0.5 71.25H16.325C18.925 71.25 21.375 71.45 23.675 71.85C26.025 72.25 28.1 73.025 29.9 74.175C31.7 75.275 33.1 76.875 34.1 78.975C35.15 81.025 35.675 83.75 35.675 87.15C35.675 89.6 35.3 91.675 34.55 93.375C33.85 95.025 32.825 96.35 31.475 97.35C30.175 98.35 28.6 99.025 26.75 99.375C29.1 99.675 31.075 100.45 32.675 101.7C34.275 102.9 35.475 104.525 36.275 106.575C37.125 108.625 37.55 111.1 37.55 114C37.55 117.15 37.125 119.875 36.275 122.175C35.475 124.425 34.3 126.275 32.75 127.725C31.2 129.175 29.275 130.25 26.975 130.95C24.725 131.65 22.125 132 19.175 132H0.5ZM13.925 122.625H16.775C19.725 122.625 21.75 121.875 22.85 120.375C24 118.875 24.575 116.675 24.575 113.775C24.575 111.475 24.325 109.65 23.825 108.3C23.325 106.95 22.5 105.975 21.35 105.375C20.2 104.725 18.65 104.4 16.7 104.4H13.925L13.925 122.625ZM13.925 95.55H16.55C18.6 95.55 20.15 95.25 21.2 94.65C22.25 94 22.95 93.075 23.3 91.875C23.7 90.675 23.9 89.225 23.9 87.525C23.9 85.925 23.6 84.6 23 83.55C22.45 82.45 21.6 81.625 20.45 81.075C19.35 80.525 17.95 80.25 16.25 80.25H13.925L13.925 95.55ZM81.1813 132.9C76.6313 132.9 73.0313 132.1 70.3813 130.5C67.7313 128.9 65.8313 126.6 64.6813 123.6C63.5313 120.6 62.9563 117.025 62.9563 112.875V90.3C62.9563 86.1 63.5313 82.525 64.6813 79.575C65.8313 76.625 67.7313 74.375 70.3813 72.825C73.0313 71.225 76.6313 70.425 81.1813 70.425C85.7813 70.425 89.4063 71.225 92.0563 72.825C94.7563 74.375 96.6813 76.625 97.8312 79.575C98.9812 82.525 99.5563 86.1 99.5563 90.3V112.875C99.5563 117.025 98.9812 120.6 97.8312 123.6C96.6813 126.6 94.7563 128.9 92.0563 130.5C89.4063 132.1 85.7813 132.9 81.1813 132.9ZM81.1813 123.375C82.5813 123.375 83.6063 123.025 84.2563 122.325C84.9063 121.625 85.3313 120.725 85.5313 119.625C85.7313 118.525 85.8313 117.4 85.8313 116.25V87C85.8313 85.8 85.7313 84.675 85.5313 83.625C85.3313 82.525 84.9063 81.625 84.2563 80.925C83.6063 80.225 82.5813 79.875 81.1813 79.875C79.8813 79.875 78.9063 80.225 78.2563 80.925C77.6063 81.625 77.1813 82.525 76.9813 83.625C76.7813 84.675 76.6813 85.8 76.6813 87V116.25C76.6813 117.4 76.7563 118.525 76.9063 119.625C77.1063 120.725 77.5063 121.625 78.1063 122.325C78.7563 123.025 79.7813 123.375 81.1813 123.375ZM107.952 132L107.952 71.25H121.377V95.325H122.727L131.652 71.25H145.002L133.902 99.75L145.377 132H131.577L122.727 105.525H121.377L121.377 132H107.952ZM150.871 132L150.871 71.25H164.296L164.296 95.85H173.671L173.671 71.25H187.171L187.171 132H173.671V105.45H164.296V132H150.871ZM213.823 132.9C209.273 132.9 205.673 132.1 203.023 130.5C200.373 128.9 198.473 126.6 197.323 123.6C196.173 120.6 195.598 117.025 195.598 112.875V90.3C195.598 86.1 196.173 82.525 197.323 79.575C198.473 76.625 200.373 74.375 203.023 72.825C205.673 71.225 209.273 70.425 213.823 70.425C218.423 70.425 222.048 71.225 224.698 72.825C227.398 74.375 229.323 76.625 230.473 79.575C231.623 82.525 232.198 86.1 232.198 90.3V112.875C232.198 117.025 231.623 120.6 230.473 123.6C229.323 126.6 227.398 128.9 224.698 130.5C222.048 132.1 218.423 132.9 213.823 132.9ZM213.823 123.375C215.223 123.375 216.248 123.025 216.898 122.325C217.548 121.625 217.973 120.725 218.173 119.625C218.373 118.525 218.473 117.4 218.473 116.25V87C218.473 85.8 218.373 84.675 218.173 83.625C217.973 82.525 217.548 81.625 216.898 80.925C216.248 80.225 215.223 79.875 213.823 79.875C212.523 79.875 211.548 80.225 210.898 80.925C210.248 81.625 209.823 82.525 209.623 83.625C209.423 84.675 209.323 85.8 209.323 87V116.25C209.323 117.4 209.398 118.525 209.548 119.625C209.748 120.725 210.148 121.625 210.748 122.325C211.398 123.025 212.423 123.375 213.823 123.375Z" fill="#545050"/>
</svg>
